<?xml version="1.0" standalone="no"?>
<!DOCTYPE svg PUBLIC "-//W3C//DTD SVG 20010904//EN"
 "http://www.w3.org/TR/2001/REC-SVG-20010904/DTD/svg10.dtd">
<svg version="1.0" xmlns="http://www.w3.org/2000/svg"
 width="800.000000pt" height="800.000000pt" viewBox="0 0 800.000000 800.000000"
 preserveAspectRatio="xMidYMid meet">
<metadata>
Created by potrace 1.14, written by Peter Selinger 2001-2017
</metadata>
<g transform="translate(0.000000,800.000000) scale(0.100000,-0.100000)"
fill="#000000" stroke="none">
<path d="M6948 6974 c-131 -31 -227 -102 -404 -296 -856 -937 -1724 -2228
-2377 -3538 -378 -756 -450 -967 -449 -1315 0 -142 12 -210 50 -285 48 -97
119 -110 181 -32 15 21 74 117 130 215 294 513 518 822 803 1107 417 417 1057
804 1530 926 140 36 258 38 309 6 68 -42 80 -124 33 -220 -38 -77 -175 -212
-299 -294 -340 -225 -620 -303 -852 -238 -114 32 -177 30 -255 -8 -108 -53
-237 -193 -272 -295 -20 -58 -20 -88 -2 -131 18 -43 52 -69 156 -118 315 -150
917 -510 1385 -829 291 -198 334 -219 370 -182 68 67 -142 392 -515 799 -130
142 -327 333 -448 434 -36 30 -49 46 -40 51 7 4 67 19 133 34 537 122 1021
362 1200 595 122 158 134 287 44 469 -98 198 -282 311 -509 311 -470 0 -1039
-250 -1768 -778 -200 -145 -237 -166 -252 -141 -12 19 4 46 188 319 853 1263
1366 1910 2167 2730 215 220 245 255 286 343 26 56 30 75 25 111 -27 175 -315
307 -548 250z"/>
<path d="M3713 4141 c-102 -35 -138 -69 -334 -317 -216 -274 -672 -757 -964
-1023 -518 -472 -914 -731 -1117 -731 -61 0 -94 21 -104 68 -3 15 -8 33 -10
40 -2 8 1 46 7 85 45 286 334 762 751 1234 201 227 243 302 220 390 -47 176
-308 267 -503 176 -78 -36 -177 -123 -301 -263 -424 -480 -742 -1028 -830
-1430 -25 -113 -29 -288 -9 -370 79 -317 372 -414 803 -264 355 124 767 394
1177 773 55 51 101 91 101 88 0 -2 -16 -49 -36 -103 -165 -456 -176 -1074 -24
-1398 23 -47 61 -86 86 -86 7 0 24 10 39 22 26 24 26 24 95 323 149 644 528
1331 1222 2208 138 174 169 227 176 299 12 121 -118 251 -286 287 -71 15 -98
14 -159 -8z"/>
</g>
</svg>
