<?xml version="1.0" standalone="no"?>
<!DOCTYPE svg PUBLIC "-//W3C//DTD SVG 20010904//EN"
 "http://www.w3.org/TR/2001/REC-SVG-20010904/DTD/svg10.dtd">
<svg version="1.0" xmlns="http://www.w3.org/2000/svg"
 width="660.000000pt" height="660.000000pt" viewBox="0 0 660.000000 660.000000"
 preserveAspectRatio="xMidYMid meet">
<metadata>
Created by potrace 1.14, written by Peter Selinger 2001-2017
</metadata>
<g transform="translate(0.000000,660.000000) scale(0.100000,-0.100000)"
fill="#000000" stroke="none">
<path d="M3673 5484 c-384 -350 -707 -645 -718 -655 -20 -19 -20 -20 15 -46
115 -88 241 -230 322 -364 l37 -60 9 35 c46 165 107 356 114 356 6 0 796 -445
970 -546 9 -5 24 49 49 174 83 410 76 1008 -16 1467 -31 151 -65 275 -76 275
-4 0 -322 -286 -706 -636z"/>
<path d="M4189 6093 c-13 -16 -12 -17 4 -4 9 7 17 15 17 17 0 8 -8 3 -21 -13z"/>
<path d="M4079 5993 c-13 -16 -12 -17 4 -4 9 7 17 15 17 17 0 8 -8 3 -21 -13z"/>
<path d="M3959 5883 c-13 -16 -12 -17 4 -4 9 7 17 15 17 17 0 8 -8 3 -21 -13z"/>
<path d="M3849 5783 c-13 -16 -12 -17 4 -4 16 13 21 21 13 21 -2 0 -10 -8 -17
-17z"/>
<path d="M3739 5683 c-13 -16 -12 -17 4 -4 9 7 17 15 17 17 0 8 -8 3 -21 -13z"/>
<path d="M3619 5573 c-13 -16 -12 -17 4 -4 16 13 21 21 13 21 -2 0 -10 -8 -17
-17z"/>
<path d="M3509 5473 c-13 -16 -12 -17 4 -4 16 13 21 21 13 21 -2 0 -10 -8 -17
-17z"/>
<path d="M1108 5443 c7 -3 16 -2 19 1 4 3 -2 6 -13 5 -11 0 -14 -3 -6 -6z"/>
<path d="M4611 5414 c0 -11 3 -14 6 -6 3 7 2 16 -1 19 -3 4 -6 -2 -5 -13z"/>
<path d="M3389 5363 c-13 -16 -12 -17 4 -4 9 7 17 15 17 17 0 8 -8 3 -21 -13z"/>
<path d="M939 5328 c16 -41 1258 -2779 1263 -2783 6 -6 195 141 328 255 136
116 360 343 450 455 318 398 403 768 247 1080 -62 125 -214 293 -367 407 -324
242 -846 449 -1390 552 -165 31 -370 56 -467 56 -71 0 -72 0 -64 -22z"/>
<path d="M3279 5263 c-13 -16 -12 -17 4 -4 16 13 21 21 13 21 -2 0 -10 -8 -17
-17z"/>
<path d="M4622 5255 c0 -16 2 -22 5 -12 2 9 2 23 0 30 -3 6 -5 -1 -5 -18z"/>
<path d="M3169 5163 c-13 -16 -12 -17 4 -4 16 13 21 21 13 21 -2 0 -10 -8 -17
-17z"/>
<path d="M3049 5053 c-13 -16 -12 -17 4 -4 16 13 21 21 13 21 -2 0 -10 -8 -17
-17z"/>
<path d="M2939 4953 c-13 -16 -12 -17 4 -4 16 13 21 21 13 21 -2 0 -10 -8 -17
-17z"/>
<path d="M4622 4810 c0 -14 2 -19 5 -12 2 6 2 18 0 25 -3 6 -5 1 -5 -13z"/>
<path d="M4611 4674 c0 -11 3 -14 6 -6 3 7 2 16 -1 19 -3 4 -6 -2 -5 -13z"/>
<path d="M3462 4468 c-62 -216 -74 -261 -73 -283 6 -106 18 -220 20 -182 0 26
4 47 8 47 25 0 179 -88 233 -132 106 -88 199 -230 232 -353 l13 -47 80 6 c145
13 398 25 508 26 79 0 107 -3 107 -12 0 -7 -50 -255 -111 -551 -61 -296 -109
-540 -107 -542 6 -6 206 16 323 36 349 59 748 195 1115 381 191 96 365 203
363 223 -1 8 -2655 1525 -2667 1525 -2 0 -21 -64 -44 -142z"/>
<path d="M3391 3871 c-46 -282 -223 -579 -535 -900 -50 -51 -86 -91 -79 -87 7
4 34 -9 61 -29 102 -73 219 -109 352 -109 108 0 174 16 280 67 254 123 391
423 321 699 -49 190 -183 350 -353 421 l-35 15 -12 -77z"/>
<path d="M1635 3500 c-3 -6 1 -7 9 -4 18 7 21 14 7 14 -6 0 -13 -4 -16 -10z"/>
<path d="M4135 3440 c-55 -4 -127 -11 -161 -14 l-61 -8 -6 -91 c-4 -51 -14
-119 -23 -152 -40 -149 -141 -297 -265 -387 l-68 -50 18 -37 c49 -97 239 -608
229 -615 -2 -1 -252 -30 -556 -64 -305 -33 -556 -62 -558 -65 -6 -6 43 -121
106 -246 169 -337 433 -694 740 -1002 147 -148 309 -285 321 -271 6 7 619
2976 619 3000 0 13 -159 14 -335 2z"/>
<path d="M1583 3317 c-180 -163 -339 -346 -507 -586 -188 -268 -366 -597 -450
-830 -23 -64 -24 -71 -8 -71 22 0 2964 328 3014 336 l37 6 -39 111 c-21 62
-62 168 -90 237 -29 69 -57 137 -63 153 -8 18 -16 25 -27 21 -64 -25 -174 -44
-260 -44 -157 0 -310 50 -427 139 l-51 39 -59 -51 c-112 -100 -179 -155 -331
-271 -84 -64 -154 -116 -156 -116 -2 0 -106 226 -231 503 -125 276 -230 507
-234 514 -4 7 -49 -28 -118 -90z"/>
<path d="M1494 3378 l-19 -23 23 19 c21 18 27 26 19 26 -2 0 -12 -10 -23 -22z"/>
<path d="M1324 3208 l-19 -23 23 19 c21 18 27 26 19 26 -2 0 -12 -10 -23 -22z"/>
<path d="M6304 3058 l-19 -23 23 19 c12 11 22 21 22 23 0 8 -8 2 -26 -19z"/>
<path d="M4388 2343 c6 -2 18 -2 25 0 6 3 1 5 -13 5 -14 0 -19 -2 -12 -5z"/>
<path d="M1128 1783 c7 -3 16 -2 19 1 4 3 -2 6 -13 5 -11 0 -14 -3 -6 -6z"/>
<path d="M481 1743 c-1 -28 2 -33 22 -32 15 1 17 3 5 6 -9 2 -19 16 -21 31 -4
24 -4 24 -6 -5z"/>
<path d="M858 1753 c7 -3 16 -2 19 1 4 3 -2 6 -13 5 -11 0 -14 -3 -6 -6z"/>
<path d="M768 1743 c7 -3 16 -2 19 1 4 3 -2 6 -13 5 -11 0 -14 -3 -6 -6z"/>
<path d="M3310 786 c0 -2 8 -10 18 -17 15 -13 16 -12 3 4 -13 16 -21 21 -21
13z"/>
</g>
</svg>
