<?xml version="1.0" standalone="no"?>
<!DOCTYPE svg PUBLIC "-//W3C//DTD SVG 20010904//EN"
 "http://www.w3.org/TR/2001/REC-SVG-20010904/DTD/svg10.dtd">
<svg version="1.0" xmlns="http://www.w3.org/2000/svg"
 width="1000.000000pt" height="1000.000000pt" viewBox="0 0 1000.000000 1000.000000"
 preserveAspectRatio="xMidYMid meet">
<metadata>
Created by potrace 1.14, written by Peter Selinger 2001-2017
</metadata>
<g transform="translate(0.000000,1000.000000) scale(0.100000,-0.100000)"
fill="#000000" stroke="none">
<path d="M0 5000 l0 -5000 5000 0 5000 0 0 5000 0 5000 -5000 0 -5000 0 0
-5000z m9397 4086 c155 -37 341 -163 388 -263 43 -90 21 -200 -63 -327 -27
-39 -159 -186 -302 -334 -1191 -1234 -1810 -2010 -2967 -3717 -302 -446 -318
-472 -314 -512 2 -19 47 -16 79 4 15 10 115 81 222 158 910 658 1563 981 2185
1081 155 25 396 25 490 0 233 -62 412 -212 519 -435 138 -289 50 -553 -272
-813 -329 -264 -918 -514 -1532 -648 -52 -11 -101 -23 -108 -25 -8 -3 34 -45
100 -102 153 -132 462 -437 617 -608 410 -452 668 -826 679 -986 4 -50 2 -58
-19 -73 -56 -39 -128 -7 -377 168 -615 430 -1509 968 -2044 1230 -152 75 -199
115 -218 188 -30 109 39 257 190 408 132 132 255 200 362 200 28 0 103 -15
167 -32 107 -30 127 -33 261 -32 164 1 255 20 444 94 347 136 720 395 856 595
98 143 106 276 21 348 -48 40 -100 50 -231 44 -179 -9 -409 -76 -687 -201
-654 -293 -1316 -753 -1734 -1208 -360 -391 -619 -759 -992 -1408 -199 -346
-237 -392 -321 -376 -186 35 -245 497 -130 1015 33 145 65 238 169 475 511
1173 1308 2576 2149 3781 507 727 1002 1354 1481 1875 182 197 270 281 349
334 75 50 179 94 265 112 77 16 230 11 318 -10z m-4559 -3881 c214 -51 383
-214 383 -371 0 -119 -23 -159 -296 -504 -855 -1080 -1342 -1941 -1586 -2804
-21 -77 -57 -227 -80 -334 -50 -240 -69 -284 -131 -297 -104 -23 -214 226
-263 598 -63 472 14 1091 186 1510 16 39 29 72 29 75 0 3 -42 -35 -92 -84
-655 -631 -1419 -1093 -1962 -1186 -333 -57 -594 28 -725 237 -181 286 -134
735 137 1310 229 486 572 980 1026 1477 198 218 359 310 544 310 95 0 156 -15
248 -58 94 -44 165 -109 203 -186 71 -142 31 -234 -231 -530 -191 -215 -305
-353 -440 -533 -442 -590 -693 -1123 -647 -1372 26 -135 162 -149 411 -43 289
124 742 453 1223 889 496 450 1117 1117 1485 1596 47 60 110 135 141 165 132
130 274 173 437 135z"/>
</g>
</svg>
